<?xml version="1.0" encoding="utf-8"?>
<!-- Generator: Adobe Illustrator 25.1.0, SVG Export Plug-In . SVG Version: 6.00 Build 0)  -->
<svg version="1.1" id="Layer_1" xmlns="http://www.w3.org/2000/svg" xmlns:xlink="http://www.w3.org/1999/xlink" x="0px" y="0px"
	 viewBox="0 0 450 100" style="enable-background:new 0 0 450 100;" xml:space="preserve">
<path d="M95.9,47.5c-1.7,0.6-4.5,0.9-7,0.3c-2.6-0.7-6.8-2.7-7.8-3.4s-1.2-1.1-2.6-1.3c-3.6-0.4-9.7,5.1-11.9,6.7
	c-2.3,1.6-5,3.2-7.8,4.1c-0.2-0.2-0.9-0.6-1-0.8c-0.9-1.6,0.1-4-0.5-6.2c-0.1-0.4-0.7-0.8-1-1c-3.7-3.1-10.5,2-12.9,3.6
	c-0.3,0.2-0.7,0.9-1,1c-0.2,0.1-0.6-0.1-0.8,0V50c0.2-0.6,1.1-1.4,1.6-1.8c0.3-0.3,0.5-0.7,0.8-1c0.4-0.5,0.9-1,1.2-1.5
	c0.5-0.6,0.9-1.2,1.3-1.9c1.2-1.7,2.8-3.3,3.9-5.2c2.1-3.7,9.6-20.5-1.3-20.2c-2.1,0.1-3.5,1.1-4.7,2.1c-6,4.8-2.9,16-5.4,24.1
	c-1.4,4.3-5.3,7-8.8,9.3c-1.6,1.1-2.5,1.4-2.8,3.9c0.3,0,1.6,0.1,2.3,0c4.1-0.6,5.9-6.1,7.5,2.1c0.6,0.1,2,1,3.1,0.3
	c0.1-0.1,0.8-2.1,1-2.3c1.5-2.1,4.5-3,6.5-4.7c0.7-0.6,1.3-2,2.1-2.3c0.8-0.3,1.4-0.1,2.3-0.3c0.2,0.4,0.9,0.9,1,1.3
	c0.7,2.7-0.8,6.9,1.3,8c1.7,1,4.2,0.2,5.7-0.3c3.4-1.1,5.4-3.8,7.3-6.5c0.6,0.8,1.4,1.4,1.8,2.3c0.5,1.1,0.4,2,1,2.8
	c1.6,2.3,7.4,3.7,11.1,2.3c1-0.4,3.5-2.9,3.9-3.9c1-2.8-0.6-4,2.6-4.9c2.6-0.8,6.3-0.6,8.1-2.3C97.5,48.2,96.6,47.3,95.9,47.5z
	 M49.6,24c0.2,0.3,0.8,0.2,1,0.5c1.5,2.5-1.6,8.4-2.3,9.8c-0.9,1.7-1.9,4.8-3.4,5.7c-0.4,0.2-0.6,0-1,0.3
	C44.7,32.5,42.9,26.2,49.6,24z M81.9,52.7c-0.2,0.9-1.3,2.1-1.9,2.7c-0.4,0.3-1,1-1.5,1.2c-2.8,0.9-5.3-1.1-5.2-3.4
	c0.1-1.4,1.4-3.1,2.1-4.1c1.8,1.4,4.1,2,6.5,2.8C81.8,52.2,82,52.4,81.9,52.7z"/>
<path d="M420.1,51.5c-1.9,0.2-2.1,0.2-3.5,0.1c0.9-1.4-1.2-3.8-2.1-5.7c-0.8-1.7-2.1-3.7-2.6-5.7c-0.4-1.5,0.4-2.2,0-3.6
	c-0.1-0.2-0.4-0.4-0.5-0.8c-1.9,0.4-3.4,0.7-3.9,2.3c-0.3,1,0.1,1.8-0.3,2.6c-0.5,1-2.6,2.5-3.4,3.4l-1.1,1c-0.5,0.8-6,5.5-7.1,6.1
	c-1.2,0.6-2.3,1.1-3.4,1.7c-1.4,0.7-3.2,2.1-5.4,1.8c-1.1-0.1-2.9-1.3-2.9-2.2c0.6-0.4,1.2-0.6,1.8-0.9c2.7-1.6,4.5-1.7,6.2-4.4
	l0.5-1c0.3-0.8,0.4-0.7,0.6-1.7c0.1-0.4,0.4-1.4,0.4-1.8c0.9-6-8.1-5.1-10.9-3.1c-2.2,1.6-4,5.4-4.9,8.3c-0.3,1-0.2,2-0.8,2.6
	c-0.5,0.5-1.7,1.1-2.3,1.3c-1,0.4-2.8,0.8-3.9,0.8c-1.3-0.1-3.1-0.9-3.6-1.8c-0.5-0.8-0.9-3-0.5-3.9L367,46c0.7-1.1,0.8-1,1.8-1.8
	c0.3-0.2,0.8-0.4,1.1-0.6c3.9-2.9,8.7-4.8,11.4-8.8c1.7-2.6,2.3-7.6,1.3-11.4c-0.5-1.9-0.9-3.8-2.6-4.4c-7.9-3-16.2,10.9-17.6,16.3
	c-0.4,1.3-0.7,3-0.8,4.1c-0.2,1.7,0.5,3.9,0,5.4c0,0.1-0.5,0.4-1.2,1s-3.4,3.4-5.8,5.2c-0.4,0.3,0.2-0.3-2.2,1.9
	c-2.4,2.2-2.5-4.8-3.8-7.1c-0.2-0.4-1.8-1.9-1.8-2.1c0,0-0.1-0.2-0.5-0.5s-2.4-1.2-2.8-1.3c-3-1.1-7.1-2.6-10.9-1.1
	c-0.7,0.3-1.5,0.9-1.8,1.6c-1.1,2.6,1,5.8,0.3,7.8c-0.2,0.7-0.3,0.8-0.8,1.3c-0.5,0.4-0.6,0.1-1,0c-0.6-0.2-2.5-1.3-3.1-1.6
	c-1.8-0.7-3.8-2.1-6.5-2.1c-0.7,0-2.4,0.3-3,0.6c-0.2,0.1-1,0.5-1.2,0.6c-0.4,0.1-0.7,0.3-1.1,0.4c-0.6-0.8-1-2-2.6-1.8
	c-0.5,0-1.2,0.8-1.6,1c-3.3,2.2-5.6,7-10.1,2.8c-1.9-1.7-1.3-4.3-0.8-6.7c0.4-2,1.4-6.8-2.1-6c-0.3,0.1-0.6,0.6-0.8,0.8
	c-3.3,3.7-6.3,9.8-10.9,11.9c-1.2,0.5-0.9,0.2-2.1,0.3c0,0-0.2-0.5-0.3-0.5h-0.4c0-0.1,0.1-2.2-0.3-2.8c-0.7-1.4-2.4-2.2-3.1-3.6
	c-0.2-0.4-0.1-0.6-0.3-1.3c0,0.1-0.7-0.3,0-0.3c0.3-1.4,0.8-3.2,0.3-4.7c-0.2-0.5-1.1-1.5-2.1-1.3c0,0-1.7,0.4-2.1,1
	c-0.4,0.7-0.2,2-0.5,2.8c-0.3,0.7-1.1,1.2-1.6,1.8c-1.8,2.4-3.4,4.8-6,6.5c-1.6,1-4.2,2-5.2,3.6c-0.4,0.7-0.4,2.9-0.3,2.3
	c0.3,0.8,0.3,1.1,0.5,1.8c0.4-0.1,0.6,0.1,1,0c2-0.6,3.7-2.7,5.2-3.9c0.2-0.2,2.2-1.9,2.8-2.6c1-0.9,2.2-1.7,3.1-2.6
	c0.2-0.2,0.7-1.2,1-1.3c0.8-0.2,0.6,0.3,1.3,0.3c0.2,0.3,0.1,0.2,0.3,0.5c0.8,1.5,2.2,2.1,0.8,3.9c-2,2.5-6.5,1.5-5.4,6
	c5.8,1.7,15.2-0.9,18.6-3.4c0.8-0.6,1.5-1.7,2.1-2.6c0.2,0.3,0.8,0.5,1,0.8c0.8,1.1,1.2,2.5,2.3,3.4c1.5,1.1,6.1,2.8,9.1,2.3
	c1.7-0.3,3.2-2.5,4.8-2.6c1.7-0.2,1.9,1.5,4,0.8c1.4-0.5,2.5-3.8,5.2-3.9c2.6-0.1,3.6,2.3,5.1,3c0.3,0.1,2.2,1.2,2.8,1.3
	c0.6,0.1,1.9,0.5,4.3,0.1c0.9-0.2,2.8-1.3,2.8-1.3s1.2,1.1,2.3,1.6c1.1,0.4,1.6,0.2,2.6,0.5c0.3,0.1,2.3,0.6,2.6,0.8
	c0.2,0.1,0.9,0.6,0.3,1c-0.7,0.4-1,0.6-1.6,1c-0.9,0.7-3,2.5-3.6,3.4c-0.3,0.4-0.4,1.6-0.8,1.8c-1.9,1.1-14.9,0-18.4,0.3
	c-7.2,0.5-15.5-0.3-23,0.3c-7.1,0.5-15.3-0.3-22.8,0.3c-7.1,0.5-15.3-0.3-22.8,0.3c-3.9,0.3-8.9,0.5-13,0.5c-0.5-1.6-2.2-9-1.3-10.6
	c0.3-0.2,0.5-0.3,0.8-0.5c3.3-2.3,9.2-5.8,9.8-7.5c0.2-0.2,0.3-0.7-1-1s-2.4-0.3-3.4,0c-2.2,0.6-4.3,2.3-6.7,2.6
	c-0.7,0.1-1.6-0.2-1.8-0.3c-0.2-0.4-0.1-1.6-0.3-2.8c-0.1-0.5-0.3-3.1-0.3-2.8c5.3-4.3,10.6-11.1,9.6-20.7c-0.2-1.5,0-2.7-0.5-3.9
	c-0.5-1.1-0.9-0.7-2-2.4s-1.1-1.8-2.1-3.3c-1.3-1.9-3.8-5.4-7.3-4.9c-1.4,0.2-2.4,1.6-3.1,2.6c-3.1,4.2-2.3,8.9-1.8,15
	c0.2,2.5,0,4.3,0.3,6.7s1.7,5.6,1,8.8c-0.2,1.1-1.5,2.8-2.3,3.4c-1.9,1.3-7.8,2.1-10.9,1c-3.4-1.1-6.3-6.3-11.4-4.1
	c-1.5,0.6-2.9,1.7-4.1,2.6c-2.3,1.1-10.9,7.2-16.3,10.9c0,0,0.4,0.9,0.8,1c4.1,1.7,7.5-2.2,9.3-3.9c0.3-0.3,1-1.2,1.3-1.3
	c0.2-0.1,0.4-0.2,0.8,0s0.7,0.5,0.8,0.8c0.3,0.9,0.1,1.3,0.2,2.1s0.5,1.1,0.6,1.3c1.3,1.7,2.8,3.6,4.9,4.4c5.5,2,10-2.7,11.9-6
	c0.5-0.8,0.6-2.3,1.3-2.8c1.3-1.1,5.8-1.1,6-0.8s0.1,0.5,0,0.8c-0.5,1.3-3.6,2.5-4.4,3.6c-0.4,0.6-0.2,1.1-0.5,1.8
	c0.6,0.1,1.3,0.1,2.1,0.3c0,0,1.1,0.2,1.8,0c2.5-0.7,5.7-5.3,6.2-6.2s0.8-1.6,1.3-2.1c0.6-0.5,1.5-1,1.8-0.8s0.7,0.7,0.8,1
	c0.7,2.8-3.3,4.4-3.1,7.8l0.5,1.3c0.3,1.6,0.8,2.1,1.3,3.8s0.5,2,0.8,2.8c0.3,1,0.4,1.3,0.5,2.5c-8.3,0-17.3-0.1-25.4,0.5
	c-5.5,0.4-11.7-0.1-16.8,0.3c-10.9,0.8-22-0.8-32.9,0c-7.3,0.5-15.7-0.4-23.3,0.3c-1.4,0.1-3.9,0.7-5.4,0.8
	c-7.7,0.6-15.5-0.1-22.8,0.5c-0.8,0.1-1.6-0.2-2.3,0c-0.5,0.1-1.2,0.8-1.6,1c-1.4,0.7-2.8,1.4-4.1,2.1c-2.1,1.1-4.2,1.6-6.5,2.6
	c-2.1,0.9-4.4,2.3-6.5,3.1c-4.9,1.9-10.4,2.7-14.5,5.2c-0.7,0.4-1.5,0.5-2.1,1c-1.5,1.3-2.2,4.1-2.8,6.2c4.5-0.4,7.3-1.8,10.6-3.1
	c2.2-0.8,4-1.4,6-2.3c1-0.5,1.8-1.3,2.8-1.8c0.3-0.1,0.5,0.1,0.8,0c1.2-0.3,2.9-1.6,4.1-2.1c4.9-1.8,10.9-3.2,16.6-3.9
	c11-1.3,24-0.4,35.7-1.3c6-0.5,12.1,0.4,18.1,0c10.2-0.8,21.7,0.5,32.4-0.3c4.4-0.3,9.9,0.1,14.8-0.3c8.9-0.7,18.4-0.5,27.7-0.5
	c1.1,2.8,2.8,7.2,3.1,8.5c0.3,1.3,1.2,6.2,1.6,6.5c0.9,0.8,3.5,0.7,3.9,0.3c0.4-0.5,0.7-1.5,0.8-2.1c0.1-1.3-0.4-2.7-0.5-3.6
	c-0.5-3.4-0.9-6.4-1.3-9.6c0.4,0,6.1-0.3,8.3-0.3c7.8,0,15.8,0.6,23.6,0c20.2-1.5,43.8-0.8,65.3-0.8c1.2,3.7,3.2,6.7,4.9,7.8
	c0.6,0.4,0.6,0.5,0.7,0.6c0.5,0.3,0.5,0.4,0.9,0.7c1,0.6,1.4,0.9,2.5,1c7.7,1,8.3-6.1,9.3-11.9c1.7-0.3,4.1-0.8,6-0.8
	c1.4,0,3.5,0.4,4.9,0.8l1.9,0.3c1.6,0.2,2.5-0.1,4.3,0.2c2.9,0.5,8.5,2.9,11.9,1.3c0.9-0.4,2.6-2.9,3.4-3.6c1-1,1.6-1.6,2.3-2.8
	c-0.3-0.1-0.4-0.5-0.5-0.5c-1.1-0.4-2.1-0.1-3.4-0.3c-1.4-0.2-3-0.5-4.7-0.8c-4.6-0.8-9.1-1.7-14.5-2.1c-1.8-0.1-4.4-0.8-6.5-0.4
	l-1.2,0.7c-1.5,0.6-2.9,0.8-4.7,1c0-3.4-0.3-4.2,1.8-6.5c2.2-2.3,2.7-2.8,4.2-4.6c0.3-0.4,2.3-2,2.7-2.2c2.4-1.2,2.5,2.3,3.7,3.1
	c0.6,0.4,2,0.9,2.6,1c2.3,0.6,5.5,0.2,7.5-0.3c0.8-0.2,1.9-1.1,3.1-0.8c0.4,0.1,1,1.1,1.3,1.3c1.6,1,4.8,2.6,7,2.8
	c3.7,0.4,6.9-1.3,8.8-2.8c0.4-0.3,1.4-1,1.8-1.3c0.9-0.7,1.1-0.9,2.1-1.5c1.4-1,2.9-2.6,4.1-3.9c1.4-1.4,2.2-2.4,4.1-3.4l0.5-0.5
	c1-0.1,0.8,0.4,1.3,0.8c0.7,0.5,0.9,0.9,1.3,1.8c1.4,3.5-3.3,3.4-5.4,4.9c-0.8,0.6-0.8,1.3-1.3,2.3c0.3,0.2,0.5,0.9,0.8,1
	c0.9,0.3,2.7-0.2,3.1-0.3c7.1-0.5,12.8-2.3,13.7-3.9C422,52.2,422,51.4,420.1,51.5z M374.1,24c0.8-0.8,1.5-1.4,2.1-1.5
	c1.1-0.2,2.4,0.5,2.8,1c0.6,0.7,0.8,0.8,1.1,2.6c0.4,1.8,0,1.9-0.1,2.8c-0.3,1.5-0.8,4.8-4.1,6.9c-0.8,0.7-2,1.7-2.8,2.1
	c-0.8,0.4-1.8,0.9-2.9,1.8c-0.7,0.3-2.2,2.1-3.8,1.5C364.7,35,370.2,27,374.1,24z M203.1,56.1c-2.8,0.4-4.9-3.7-4.1-6.5
	c0.2-0.6,0.1-1.4,0.7-1.8s0.8-0.6,2.3-0.4c1.5,0.1,2.2,0.6,2.9,0.9c1,0.5,2.1,1.2,2.3,2.4C207.7,52.4,204.2,55.9,203.1,56.1z
	 M230.3,31.2c-0.6-5.4,0.3-10.8,0.3-16.6c0.4,0.3,0.6,0,1,0.3c0.7,0.5,1.6,1.9,2.3,2.8c0.6,0.8,1.6,1.7,2.1,2.6
	c2,4.4,0.8,10.7-1.6,13.7c-0.8,1-2,1.6-3.1,2.3C230.8,34.6,230.6,33.4,230.3,31.2z M346.9,62c2.6-0.3,1.4,2,1.3,3.6
	c-1.5,0-2.9,0-4.4,0C344.3,64.3,345.3,62.2,346.9,62z M340.2,52.2c-0.5-0.1-1.4-0.1-1.9-0.2c-0.3-0.1-0.8-0.5-1-0.8
	c-0.2-0.2-0.3-0.8-0.4-1.1c-0.4-1.1-1.2-2.9-0.5-4.4c0.1-0.3,0.1-0.6,0.8-0.8c2.1-0.4,4.8,1.5,6.2,3.4c0.5,0.6,1.5,2.3,1.3,3.4
	c0,0-0.5,0.6-0.5,0.8C342.5,52.5,341.7,52.6,340.2,52.2z M347.7,79.1c-0.3,0.3-0.4,0.5-0.9,0.7c-1.2,0.7-3.4-0.3-4.5-1.9
	c-0.2-0.3-0.8-0.9-1-1.7c-0.3-0.8,0.2-1.7,0.3-2.1c2.4,0,5-0.2,6.7-0.5c0,0,0.4,0.2,0.5,0.3C348.5,75.9,348.7,78,347.7,79.1z
	 M383.4,46.5c0.4-0.9,0.9-1.7,1.6-2.3s1.6-1.4,2.6-1.6c1-0.2,1,0.4,1.3,0.5c-0.1,0.5,0.1,0.8,0,1.3c-0.6,2.2-3.9,3.3-6,4.1
	C383.1,47.5,383.1,47.1,383.4,46.5z"/>
<path d="M166.4,55.3c-0.3-0.3-1.6-0.7-2.1-0.8c-3.3-0.4-5.4,1.8-8,2.1c-1.8,0.2-3.2-0.8-3.6-1c-0.4-0.3,0-0.8,0-0.8
	c1-0.6,1.9-1,2.8-1.6c1.8-1.1,4.2-2.8,5.2-4.7s1.3-4.8,0.3-6.7c-0.6-1.1-2.6-2-4.1-2.1c-4.8-0.3-9.6,4.5-10.4,8.3
	c-0.3,1.2-0.1,4.1-0.8,4.7c-1.1,0.9-5.8,1.6-6.5,0.3c-0.3-0.6,0-0.8-0.3-1.8c-0.2-1.1-0.9-2.8-2.1-4.1c-1.3-2-1.1-4-1-3.9
	c0.3-2,0.9-5.5-1.8-5.2c-2.1,0.2-6,7.4-7,8.6c-1,1.2-5,5.3-5.7,5.9c-0.7,0.6-1.4,1.1-2.1,1.6c-0.7,0.5-1.8,1.3-2.3,0.8
	s-0.5-1.2-0.5-1.6c-0.4-2,0.1-5.4,0.3-7.5c0-0.2,0.4-1.4,0.3-2.1c-0.1-0.3-0.7-0.6-0.8-0.8c0,0-1.3-0.4-1.8-0.3
	c-1.3,0.4-3.7,5.8-4.4,7.3c-0.2,0.5-1.9,2.9-2.1,3.1c-0.2,0.1-0.8,0.8-0.8,0.8c-1.2,0.7-2.3,0.3-2.3,0.3s-1-0.3-1.3-1.3
	c-0.1-0.3-0.4-1.4-0.3-2.1c0.2-1,1.6-2.3,1.8-3.4c0.6-3-0.2-3.4-2.6-3.6c-0.3,0.4-0.7,1.1-1.2,1.7c-0.5,0.6-0.9,0.9-1.4,1.7
	c-1.4,1.8-2.9,3.5-4.7,4.9c-0.7,0.5-2.9,1.4-3.4,2.1c-0.5,0.7-1.1,2.7-0.8,3.6c0.1,0.3,0.4,0.8,1,0.8s1.2-0.2,2.1-0.8
	c0.9-0.4,2.8-2.4,3.7-3.2c1-0.8,1.6,0.9,2.3,2.6c0.4,0.6,0.6,1.2,1.2,1.6c1.5,0.9,4.4,0.5,5.7-0.3s2.3-2.7,3.9-3.1
	c2.7-0.7,2,3.5,3.9,4.1c0.8,0.3,3,0.2,3.9,0s1.9-1.1,2.6-1.6c4.4-2.9,7.2-7.9,11.4-10.6c0.8,1,1.5,2.4,2.1,3.6c0-0.2,0.3,1,0.3,1.3
	c-0.2,0.8-1.8,1.4-2.6,1.8c-0.9,0.4-3.8,1.4-4.1,2.1c-3.1,6.1,10.7,1.7,12.4,1.6c1.4-0.2,5.3-1.2,6.4-1.3c0.8,0.9,1.9,2.7,2.7,3.6
	c0.8,0.8,1.3,1.3,2,1.4c1.7,0.3,4-0.3,5.4-0.8c2-0.6,6.3-2.5,8-3.6c0.2-0.1,1-0.6,1-0.8C166.5,55.9,166.6,55.6,166.4,55.3z
	 M151.1,50.1c0.3-3.1,0.6-3.6,2-4.6c0.1-0.1,1.3-0.8,1.9-0.9c0.6-0.1,1.2-0.1,1.6,0.3c0.4,0.3,0.5,0.3,0.5,0.8
	c0.1,1.8-4.3,4.2-4.9,4.4C151.5,50.4,151.3,50.1,151.1,50.1z"/>
<path d="M301.8,27.3c0.2,0.1,0.8,0,1,0c0.1,0.3,0.5,0.4,0.5,0.5c0.8,2.3-1.3,4.9-2.6,5.2c-1.5,0.3-2.4-0.4-3.1-0.8
	c0-0.2,0.1-0.7,0-0.8c0.4-0.3,0.7-0.6,1-1C299.7,29.3,300.5,28.2,301.8,27.3z"/>
</svg>
